<?xml version="1.0" standalone="no"?>
<!DOCTYPE svg PUBLIC "-//W3C//DTD SVG 20010904//EN"
 "http://www.w3.org/TR/2001/REC-SVG-20010904/DTD/svg10.dtd">
<svg version="1.0" xmlns="http://www.w3.org/2000/svg"
 width="300.000000pt" height="300.000000pt" viewBox="0 0 300.000000 300.000000"
 preserveAspectRatio="xMidYMid meet">
<metadata>
Created by potrace 1.11, written by Peter Selinger 2001-2013
</metadata>
<g transform="translate(0.000000,300.000000) scale(0.100000,-0.100000)"
fill="#000000" stroke="none">
<path d="M1322 2878 c-207 -23 -383 -80 -547 -175 -483 -279 -748 -795 -692
-1348 64 -639 577 -1158 1218 -1231 81 -10 257 -9 329 0 131 18 255 52 397
110 l42 18 300 -102 c247 -84 308 -101 340 -96 122 17 204 113 196 227 -2 24
-45 163 -95 309 -51 146 -94 273 -97 282 -3 10 11 57 31 106 244 603 39 1286
-500 1664 -257 180 -614 272 -922 236z"/>
</g>
</svg>
